<svg width="18" height="13" viewBox="0 0 18 13" fill="none" xmlns="http://www.w3.org/2000/svg">
<path d="M8.25892 12.6256C8.3415 12.7411 8.45198 12.8355 8.58087 12.9007C8.70975 12.9659 8.85318 13 8.99878 13C9.14438 13 9.28781 12.9659 9.41669 12.9007C9.54558 12.8355 9.65607 12.7411 9.73864 12.6256L17.8393 1.35971C17.933 1.22977 17.988 1.07757 17.9983 0.919649C18.0085 0.76173 17.9736 0.604132 17.8973 0.463976C17.8211 0.32382 17.7064 0.206468 17.5657 0.124669C17.425 0.0428694 17.2638 -0.000248148 17.0994 1.07429e-06H0.898146C0.734192 0.000653117 0.573525 0.0443251 0.433422 0.12632C0.293319 0.208315 0.179082 0.325531 0.102995 0.465363C0.0269087 0.605195 -0.00814848 0.762351 0.00159384 0.919931C0.0113362 1.07751 0.0655094 1.22955 0.158288 1.35971L8.25892 12.6256Z" fill="#FFC90A"/>
</svg>
