<svg width="27" height="27" viewBox="0 0 27 27" fill="none" xmlns="http://www.w3.org/2000/svg">
<path d="M18.9406 26.0021C19.2858 26.0041 19.628 25.9373 19.9472 25.8056C20.2664 25.6739 20.5561 25.48 20.7995 25.2351L24.3224 21.7122C24.5646 21.4686 24.7005 21.1391 24.7005 20.7957C24.7005 20.4523 24.5646 20.1228 24.3224 19.8792L19.1226 14.6794C18.879 14.4372 18.5495 14.3013 18.2061 14.3013C17.8627 14.3013 17.5332 14.4372 17.2896 14.6794L15.2097 16.7463C13.7696 16.3624 12.4359 15.6555 11.3098 14.6794C10.3362 13.5514 9.62973 12.2183 9.24282 10.7795L11.3098 8.69951C11.5519 8.45594 11.6878 8.12647 11.6878 7.78303C11.6878 7.4396 11.5519 7.11012 11.3098 6.86656L6.10989 1.66668C5.86633 1.42456 5.53685 1.28866 5.19342 1.28866C4.84998 1.28866 4.5205 1.42456 4.27694 1.66668L0.767024 5.2026C0.522152 5.446 0.328214 5.73575 0.196529 6.05492C0.0648437 6.37409 -0.00195093 6.71629 4.33757e-05 7.06155C0.11798 12.0564 2.11389 16.8234 5.58991 20.4122C9.17875 23.8882 13.9457 25.8841 18.9406 26.0021ZM5.19992 4.43561L8.56683 7.80253L6.88987 9.47949C6.73104 9.62827 6.61211 9.81454 6.54397 10.0212C6.47583 10.2279 6.46067 10.4484 6.49988 10.6625C6.98577 12.8339 8.01449 14.8466 9.48981 16.5123C11.1542 17.9895 13.1675 19.0185 15.3397 19.5022C15.5505 19.5463 15.769 19.5373 15.9755 19.4761C16.1819 19.4148 16.37 19.3032 16.5226 19.1513L18.1996 17.4353L21.5665 20.8022L18.9666 23.4021C14.6555 23.2911 10.5421 21.5707 7.43586 18.5793C4.43672 15.4717 2.71127 11.3529 2.59998 7.03555L5.19992 4.43561ZM23.3995 11.7024H25.9994C26.0331 10.1568 25.7535 8.62029 25.1775 7.18558C24.6015 5.75086 23.7409 4.44763 22.6477 3.35442C21.5545 2.26122 20.2513 1.40066 18.8166 0.824631C17.3818 0.248599 15.8454 -0.0309869 14.2997 0.00272295V2.60266C15.5059 2.56093 16.7079 2.76777 17.8308 3.21031C18.9537 3.65285 19.9736 4.32163 20.827 5.17509C21.6805 6.02854 22.3493 7.04843 22.7918 8.17134C23.2344 9.29425 23.4412 10.4962 23.3995 11.7024Z" fill="#FFC90A"/>
<path d="M14.2996 7.80255C17.0296 7.80255 18.1996 8.97252 18.1996 11.7024H20.7995C20.7995 7.51655 18.4855 5.20261 14.2996 5.20261V7.80255Z" fill="#FFC90A"/>
</svg>
