<svg width="19" height="18" viewBox="0 0 19 18" fill="none" xmlns="http://www.w3.org/2000/svg">
<path d="M5.64799 13.0161L7.23289 12.5589L16.7756 2.90248C16.8508 2.82535 16.8928 2.72171 16.8922 2.61395C16.8917 2.50618 16.8489 2.40294 16.7729 2.32652L16.2014 1.74875C16.1644 1.71081 16.1203 1.6806 16.0716 1.65989C16.0229 1.63918 15.9705 1.62838 15.9175 1.62813C15.8646 1.62788 15.8121 1.63818 15.7632 1.65842C15.7143 1.67867 15.6699 1.70846 15.6326 1.74605L6.11509 11.3773L5.64709 13.0152L5.64799 13.0161ZM17.3327 0.604018L17.9042 1.18268C18.6926 1.98094 18.6998 3.26876 17.9186 4.05892L8.08519 14.0105L4.69759 14.9861C4.49077 15.044 4.26943 15.0174 4.08214 14.9123C3.89485 14.8072 3.75691 14.6321 3.6986 14.4254C3.6552 14.2768 3.65458 14.119 3.69679 13.97L4.68229 10.5142L14.4896 0.588719C14.6761 0.400952 14.8981 0.252194 15.1427 0.151122C15.3872 0.0500493 15.6495 -0.00131474 15.9141 2.557e-05C16.1788 0.00136588 16.4405 0.0553836 16.6841 0.158928C16.9276 0.262473 17.1481 0.413472 17.3327 0.603118V0.604018ZM6.96559 1.64166C7.41199 1.64166 7.77379 2.00794 7.77379 2.45971C7.7745 2.5665 7.75415 2.67239 7.71391 2.77132C7.67367 2.87024 7.61432 2.96027 7.53926 3.03624C7.4642 3.11222 7.3749 3.17266 7.27646 3.2141C7.17803 3.25554 7.07239 3.27717 6.96559 3.27776H3.7328C2.84 3.27776 2.1164 4.01032 2.1164 4.91297V14.7278C2.1164 15.6313 2.84 16.3639 3.7328 16.3639H13.4312C14.324 16.3639 15.0485 15.6313 15.0485 14.7278V11.4565C15.0485 11.0047 15.4103 10.6384 15.8567 10.6384C16.3031 10.6384 16.6649 11.0047 16.6649 11.4574V14.7278C16.6649 16.5349 15.2168 18 13.4312 18H3.7328C1.9472 18 0.5 16.5349 0.5 14.7278V4.91297C0.5 3.10677 1.9472 1.64166 3.7328 1.64166H6.96559Z" fill="white"/>
</svg>
