<svg width="84" height="84" viewBox="0 0 84 84" fill="none" xmlns="http://www.w3.org/2000/svg">
<path d="M21 2.625C21 1.92881 20.7234 1.26113 20.2312 0.768845C19.7389 0.276562 19.0712 0 18.375 0C17.6788 0 17.0111 0.276562 16.5188 0.768845C16.0266 1.26113 15.75 1.92881 15.75 2.625V5.25H10.5C7.71523 5.25 5.04451 6.35625 3.07538 8.32538C1.10625 10.2945 0 12.9652 0 15.75L0 21H84V15.75C84 12.9652 82.8938 10.2945 80.9246 8.32538C78.9555 6.35625 76.2848 5.25 73.5 5.25H68.25V2.625C68.25 1.92881 67.9734 1.26113 67.4812 0.768845C66.9889 0.276562 66.3212 0 65.625 0C64.9288 0 64.2611 0.276562 63.7688 0.768845C63.2766 1.26113 63 1.92881 63 2.625V5.25H21V2.625ZM84 73.5V26.25H0V73.5C0 76.2848 1.10625 78.9555 3.07538 80.9246C5.04451 82.8938 7.71523 84 10.5 84H73.5C76.2848 84 78.9555 82.8938 80.9246 80.9246C82.8938 78.9555 84 76.2848 84 73.5ZM44.625 44.625V52.5H52.5C53.1962 52.5 53.8639 52.7766 54.3562 53.2688C54.8484 53.7611 55.125 54.4288 55.125 55.125C55.125 55.8212 54.8484 56.4889 54.3562 56.9812C53.8639 57.4734 53.1962 57.75 52.5 57.75H44.625V65.625C44.625 66.3212 44.3484 66.9889 43.8562 67.4812C43.3639 67.9734 42.6962 68.25 42 68.25C41.3038 68.25 40.6361 67.9734 40.1438 67.4812C39.6516 66.9889 39.375 66.3212 39.375 65.625V57.75H31.5C30.8038 57.75 30.1361 57.4734 29.6438 56.9812C29.1516 56.4889 28.875 55.8212 28.875 55.125C28.875 54.4288 29.1516 53.7611 29.6438 53.2688C30.1361 52.7766 30.8038 52.5 31.5 52.5H39.375V44.625C39.375 43.9288 39.6516 43.2611 40.1438 42.7688C40.6361 42.2766 41.3038 42 42 42C42.6962 42 43.3639 42.2766 43.8562 42.7688C44.3484 43.2611 44.625 43.9288 44.625 44.625Z" fill="#FFC90A"/>
</svg>
