<svg width="75" height="84" viewBox="0 0 75 84" fill="none" xmlns="http://www.w3.org/2000/svg">
<path d="M22.8585 28.3231L23.3486 28.2811C23.526 28.2615 23.6957 28.1978 23.8421 28.0956L23.8386 28.0991C24.3076 29.7162 24.8816 31.4173 25.5991 33.1988C26.5197 35.5299 27.4262 37.4445 28.4413 39.2926L28.3013 39.0126C28.2173 40.2866 28.1157 41.5957 27.9827 42.8627C27.9245 43.6102 27.7728 44.3475 27.5312 45.0573L27.5487 44.9943C27.5067 45.0118 27.4472 52.2746 27.4472 52.2746C27.4485 54.5281 28.208 56.7157 29.6035 58.4851C30.999 60.2546 32.9494 61.503 35.1405 62.0295L35.2105 62.0435C35.3078 61.7908 35.4792 61.5734 35.7022 61.4198C35.9251 61.2661 36.1893 61.1834 36.4601 61.1825H38.4692C38.7375 61.1861 38.9988 61.2687 39.2204 61.4199C39.442 61.5712 39.6141 61.7845 39.7152 62.033L39.7187 62.0435C41.9285 61.5327 43.9011 60.2909 45.317 58.5191C46.733 56.7474 47.5094 54.5496 47.5205 52.2816V52.2781C47.5205 52.2781 47.398 45.0468 47.335 44.9978C47.1264 44.3213 46.9834 43.6262 46.908 42.9222L46.9045 42.8697C46.782 41.5957 46.7015 40.3181 46.586 39.0196C47.4505 37.4585 48.3571 35.5474 49.1551 33.5769L49.2881 33.2058C50.0056 31.4243 50.5622 29.7267 51.0487 28.1061C51.1925 28.2082 51.3599 28.2721 51.5352 28.2916H51.5387L52.0322 28.3336C52.6272 28.3966 53.1523 27.9066 53.2013 27.1471L53.7333 20.3883V20.3813C53.733 20.1093 53.6337 19.8468 53.454 19.6426C53.2743 19.4384 53.0265 19.3066 52.7567 19.2718H52.6902C53.1564 15.7523 52.8676 12.174 51.8432 8.77485L51.8887 8.95336C50.9015 6.76129 49.4 4.83973 47.5117 3.35174C45.6233 1.86376 43.4039 0.853265 41.0418 0.406016L40.9508 0.392016C39.8055 0.1624 38.6427 0.0312489 37.4751 0H37.4016C36.1802 0.0218728 34.9636 0.160171 33.7685 0.413017L33.8945 0.392016C31.5336 0.830236 29.312 1.82763 27.4157 3.3007C25.5194 4.77378 24.0035 6.67967 22.995 8.85886L22.9565 8.95336C21.9488 12.3394 21.6803 15.9024 22.169 19.4013L22.155 19.2718C21.8846 19.301 21.6344 19.429 21.4523 19.6311C21.2702 19.8332 21.169 20.0953 21.168 20.3673V20.3918L21.7 27.1506C21.749 27.9276 22.281 28.3966 22.855 28.3336L22.8585 28.3231Z" fill="#FFC90A"/>
<path d="M74.9619 73.0556C74.7169 62.4151 73.6528 60.007 73.0788 58.376C72.8513 57.7215 72.6658 53.2973 65.3575 50.4272C60.8773 48.6631 55.0951 48.6281 50.2019 46.5595V52.3137C50.1968 55.2637 49.166 58.12 47.286 60.3934C45.4061 62.6667 42.794 64.2154 39.8975 64.7742L39.817 64.7882C39.7645 65.0987 39.6048 65.3809 39.3655 65.5856C39.1263 65.7903 38.8228 65.9045 38.5079 65.9083H38.4449V70.2485C38.4449 72.2851 39.254 74.2384 40.6941 75.6785C42.1343 77.1187 44.0876 77.9278 46.1242 77.9278C48.1609 77.9278 50.1142 77.1187 51.5543 75.6785C52.9945 74.2384 53.8036 72.2851 53.8036 70.2485V67.2173C52.7465 67.0623 51.7829 66.5253 51.095 65.7078C50.4071 64.8903 50.0427 63.8491 50.0707 62.7811C50.0986 61.7131 50.517 60.6923 51.2467 59.912C51.9764 59.1316 52.9668 58.6457 54.0305 58.5462C55.0943 58.4467 56.1576 58.7405 57.0193 59.372C57.8811 60.0035 58.4815 60.929 58.7071 61.9733C58.9326 63.0176 58.7676 64.1083 58.2433 65.0392C57.7189 65.97 56.8716 66.6765 55.8616 67.0248L55.8301 67.0353V70.413C55.8301 72.9881 54.8072 75.4577 52.9863 77.2785C51.1655 79.0994 48.6958 80.1224 46.1207 80.1224C43.5456 80.1224 41.076 79.0994 39.2552 77.2785C37.4343 75.4577 36.4114 72.9881 36.4114 70.413V70.238V70.245V65.8663C36.1116 65.8459 35.8276 65.7248 35.6052 65.5228C35.3829 65.3208 35.2353 65.0496 35.1863 64.7532V64.7462C32.2866 64.1932 29.6694 62.6491 27.7831 60.3784C25.8968 58.1077 24.8588 55.2517 24.8469 52.2997V46.5C19.9327 48.6106 14.1154 48.6526 9.61077 50.4202C2.28147 53.2868 2.11347 57.7004 1.88946 58.3655C1.32943 60.0035 0.251391 62.4011 0.0063808 73.0486C-0.0356209 74.4486 0.00638099 76.5942 4.22755 78.4703C13.4189 82.0754 25.2599 83.1955 36.9329 84.0005H38.0529C49.7504 83.2025 61.5739 82.0859 70.7582 78.4703C74.9619 76.6047 75.0004 74.4731 74.9619 73.0591V73.0556ZM23.5763 68.7154H19.2152V73.0941H16.1V68.7294H11.7389V65.6143H16.1V61.2531H19.2152V65.6143H23.5763V68.7154Z" fill="#FFC90A"/>
<path d="M56.7932 62.8595V62.856C56.7928 62.2315 56.5443 61.6326 56.1024 61.1912C55.6605 60.7498 55.0613 60.502 54.4368 60.5022C53.8122 60.5024 53.2132 60.7507 52.7717 61.1924C52.3301 61.6342 52.082 62.2332 52.082 62.8578C52.082 63.4824 52.3301 64.0814 52.7717 64.5231C53.2132 64.9649 53.8122 65.2132 54.4368 65.2134C55.0613 65.2136 55.6605 64.9658 56.1024 64.5244C56.5443 64.083 56.7928 63.4841 56.7932 62.8595Z" fill="#FFC90A"/>
</svg>
