<svg width="59" height="55" viewBox="0 0 59 55" fill="none" xmlns="http://www.w3.org/2000/svg">
<path d="M21.0714 8.42857H12.6429V0H8.42857V8.42857H0V12.6429H8.42857V21.0714H12.6429V12.6429H21.0714V8.42857Z" fill="#FFC90A"/>
<path d="M58.8293 30.7771L52.5079 16.0271C52.3457 15.6479 52.0757 15.3248 51.7314 15.0978C51.3871 14.8708 50.9838 14.7499 50.5714 14.7501H44.25V10.5359C44.25 9.977 44.028 9.44105 43.6328 9.04588C43.2377 8.65071 42.7017 8.42871 42.1429 8.42871H27.3929V12.643H40.0357V39.1003C39.0756 39.6578 38.2353 40.3999 37.5633 41.2838C36.8914 42.1677 36.4011 43.1758 36.1206 44.2501H22.8794C22.421 42.4417 21.3727 40.8378 19.9003 39.692C18.428 38.5463 16.6156 37.9242 14.75 37.9242C12.8844 37.9242 11.072 38.5463 9.59967 39.692C8.12731 40.8378 7.07902 42.4417 6.62064 44.2501H4.21429V25.2859H0V46.3573C0 46.9161 0.222002 47.4521 0.617168 47.8473C1.01233 48.2424 1.54829 48.4644 2.10714 48.4644H6.62064C7.07902 50.2729 8.12731 51.8768 9.59967 53.0225C11.072 54.1683 12.8844 54.7903 14.75 54.7903C16.6156 54.7903 18.428 54.1683 19.9003 53.0225C21.3727 51.8768 22.421 50.2729 22.8794 48.4644H36.1206C36.579 50.2729 37.6273 51.8768 39.0997 53.0225C40.572 54.1683 42.3844 54.7903 44.25 54.7903C46.1156 54.7903 47.928 54.1683 49.4003 53.0225C50.8727 51.8768 51.921 50.2729 52.3794 48.4644H56.8929C57.4517 48.4644 57.9877 48.2424 58.3828 47.8473C58.778 47.4521 59 46.9161 59 46.3573V31.6073C59.0001 31.3218 58.942 31.0393 58.8293 30.7771ZM14.75 50.5716C13.9165 50.5716 13.1017 50.3244 12.4087 49.8613C11.7156 49.3983 11.1755 48.7401 10.8565 47.97C10.5375 47.2 10.4541 46.3526 10.6167 45.5351C10.7793 44.7176 11.1807 43.9667 11.7701 43.3773C12.3594 42.788 13.1103 42.3866 13.9278 42.224C14.7453 42.0614 15.5927 42.1448 16.3627 42.4638C17.1328 42.7828 17.791 43.3229 18.2541 44.0159C18.7171 44.709 18.9643 45.5238 18.9643 46.3573C18.9626 47.4745 18.5181 48.5454 17.7281 49.3354C16.9381 50.1254 15.8672 50.5699 14.75 50.5716ZM44.25 18.9644H49.1807L53.6984 29.5001H44.25V18.9644ZM44.25 50.5716C43.4165 50.5716 42.6017 50.3244 41.9087 49.8613C41.2156 49.3983 40.6755 48.7401 40.3565 47.97C40.0375 47.2 39.9541 46.3526 40.1167 45.5351C40.2793 44.7176 40.6807 43.9667 41.2701 43.3773C41.8594 42.788 42.6103 42.3866 43.4278 42.224C44.2453 42.0614 45.0927 42.1448 45.8627 42.4638C46.6328 42.7828 47.291 43.3229 47.7541 44.0159C48.2171 44.709 48.4643 45.5238 48.4643 46.3573C48.4632 47.4746 48.0188 48.5459 47.2287 49.336C46.4386 50.1261 45.3674 50.5705 44.25 50.5716ZM54.7857 44.2501H52.3794C51.9152 42.4452 50.8652 40.8454 49.394 39.7014C47.9229 38.5574 46.1136 37.9339 44.25 37.9287V33.7144H54.7857V44.2501Z" fill="#FFC90A"/>
</svg>
